<svg width="288" height="288" viewBox="0 0 288 288" fill="none" xmlns="http://www.w3.org/2000/svg">
<path d="M12.3281 28.7656C12.3281 24.4061 14.0599 20.2252 17.1426 17.1426C20.2252 14.0599 24.4061 12.3281 28.7656 12.3281H94.5156C98.8751 12.3281 103.056 14.0599 106.139 17.1426C109.221 20.2252 110.953 24.4061 110.953 28.7656V110.953C110.953 115.313 109.221 119.494 106.139 122.576C103.056 125.659 98.8751 127.391 94.5156 127.391H28.7656C24.4061 127.391 20.2252 125.659 17.1426 122.576C14.0599 119.494 12.3281 115.313 12.3281 110.953V28.7656ZM176.703 28.7656C176.703 24.4061 178.435 20.2252 181.518 17.1426C184.6 14.0599 188.781 12.3281 193.141 12.3281H258.891C263.25 12.3281 267.431 14.0599 270.514 17.1426C273.596 20.2252 275.328 24.4061 275.328 28.7656V61.6406C275.328 66.0001 273.596 70.1811 270.514 73.2637C267.431 76.3463 263.25 78.0781 258.891 78.0781H193.141C188.781 78.0781 184.6 76.3463 181.518 73.2637C178.435 70.1811 176.703 66.0001 176.703 61.6406V28.7656ZM12.3281 209.578C12.3281 205.219 14.0599 201.038 17.1426 197.955C20.2252 194.872 24.4061 193.141 28.7656 193.141H94.5156C98.8751 193.141 103.056 194.872 106.139 197.955C109.221 201.038 110.953 205.219 110.953 209.578V258.891C110.953 263.25 109.221 267.431 106.139 270.514C103.056 273.596 98.8751 275.328 94.5156 275.328H28.7656C24.4061 275.328 20.2252 273.596 17.1426 270.514C14.0599 267.431 12.3281 263.25 12.3281 258.891V209.578ZM176.703 160.266C176.703 155.906 178.435 151.725 181.518 148.643C184.6 145.56 188.781 143.828 193.141 143.828H258.891C263.25 143.828 267.431 145.56 270.514 148.643C273.596 151.725 275.328 155.906 275.328 160.266V258.891C275.328 263.25 273.596 267.431 270.514 270.514C267.431 273.596 263.25 275.328 258.891 275.328H193.141C188.781 275.328 184.6 273.596 181.518 270.514C178.435 267.431 176.703 263.25 176.703 258.891V160.266Z" stroke="black" stroke-width="24.6562"/>
</svg>
